<mxfile host="Electron" modified="2023-11-22T09:17:22.402Z" agent="Mozilla/5.0 (Windows NT 10.0; Win64; x64) AppleWebKit/537.36 (KHTML, like Gecko) draw.io/22.0.3 Chrome/114.0.5735.289 Electron/25.8.4 Safari/537.36" etag="hfbD6YnKE8hc__4NCpTa" version="22.0.3" type="device">
  <diagram name="第 1 页" id="J11YPTKSEol7czofUr5M">
    <mxGraphModel dx="1219" dy="722" grid="0" gridSize="10" guides="1" tooltips="1" connect="1" arrows="1" fold="1" page="1" pageScale="1" pageWidth="827" pageHeight="1169" math="0" shadow="0">
      <root>
        <mxCell id="0" />
        <mxCell id="1" parent="0" />
        <mxCell id="5R5JDFvl6aq1sGYuGhv_-1" style="rounded=0;orthogonalLoop=1;jettySize=auto;html=1;exitX=0.5;exitY=1;exitDx=0;exitDy=0;fontStyle=0;strokeWidth=2;" edge="1" parent="1" source="5R5JDFvl6aq1sGYuGhv_-2">
          <mxGeometry relative="1" as="geometry">
            <mxPoint x="221" y="680" as="targetPoint" />
          </mxGeometry>
        </mxCell>
        <mxCell id="5R5JDFvl6aq1sGYuGhv_-2" value="&lt;b&gt;&lt;font style=&quot;font-size: 13px;&quot;&gt;客户端(Client)&lt;/font&gt;&lt;/b&gt;" style="rounded=1;whiteSpace=wrap;html=1;fillColor=#d5e8d4;strokeColor=#82b366;strokeWidth=2;" vertex="1" parent="1">
          <mxGeometry x="161" y="60" width="120" height="60" as="geometry" />
        </mxCell>
        <mxCell id="5R5JDFvl6aq1sGYuGhv_-3" style="edgeStyle=orthogonalEdgeStyle;rounded=0;orthogonalLoop=1;jettySize=auto;html=1;strokeWidth=2;" edge="1" parent="1" source="5R5JDFvl6aq1sGYuGhv_-4">
          <mxGeometry relative="1" as="geometry">
            <mxPoint x="580" y="680" as="targetPoint" />
          </mxGeometry>
        </mxCell>
        <mxCell id="5R5JDFvl6aq1sGYuGhv_-4" value="&lt;b&gt;&lt;font style=&quot;font-size: 13px;&quot;&gt;服务端(Server)&lt;/font&gt;&lt;/b&gt;" style="rounded=1;whiteSpace=wrap;html=1;fillColor=#fff2cc;strokeColor=#d6b656;strokeWidth=2;" vertex="1" parent="1">
          <mxGeometry x="521" y="60" width="120" height="60" as="geometry" />
        </mxCell>
        <mxCell id="5R5JDFvl6aq1sGYuGhv_-5" value="" style="endArrow=classic;html=1;rounded=0;strokeWidth=1;" edge="1" parent="1">
          <mxGeometry width="50" height="50" relative="1" as="geometry">
            <mxPoint x="220" y="160" as="sourcePoint" />
            <mxPoint x="581" y="200" as="targetPoint" />
          </mxGeometry>
        </mxCell>
        <mxCell id="5R5JDFvl6aq1sGYuGhv_-6" value="&lt;b&gt;&lt;font style=&quot;font-size: 16px;&quot;&gt;FIN(SEQ=x)&lt;/font&gt;&lt;/b&gt;" style="text;html=1;strokeColor=none;fillColor=none;align=center;verticalAlign=middle;whiteSpace=wrap;rounded=0;rotation=10;" vertex="1" parent="1">
          <mxGeometry x="370" y="150" width="60" height="30" as="geometry" />
        </mxCell>
        <mxCell id="5R5JDFvl6aq1sGYuGhv_-7" value="&lt;b style=&quot;border-color: var(--border-color);&quot;&gt;&lt;font style=&quot;border-color: var(--border-color); font-size: 16px;&quot;&gt;ACK (ACK+1)&lt;/font&gt;&lt;/b&gt;" style="text;html=1;align=center;verticalAlign=middle;resizable=0;points=[];autosize=1;strokeColor=none;fillColor=none;rotation=-5;" vertex="1" parent="1">
          <mxGeometry x="335" y="270" width="130" height="30" as="geometry" />
        </mxCell>
        <mxCell id="5R5JDFvl6aq1sGYuGhv_-8" value="" style="endArrow=classic;html=1;rounded=0;" edge="1" parent="1">
          <mxGeometry width="50" height="50" relative="1" as="geometry">
            <mxPoint x="580" y="280" as="sourcePoint" />
            <mxPoint x="221" y="320" as="targetPoint" />
          </mxGeometry>
        </mxCell>
        <mxCell id="5R5JDFvl6aq1sGYuGhv_-9" value="" style="endArrow=classic;html=1;rounded=0;" edge="1" parent="1">
          <mxGeometry width="50" height="50" relative="1" as="geometry">
            <mxPoint x="220" y="520" as="sourcePoint" />
            <mxPoint x="580" y="560" as="targetPoint" />
          </mxGeometry>
        </mxCell>
        <mxCell id="5R5JDFvl6aq1sGYuGhv_-10" value="&lt;b&gt;&lt;font style=&quot;font-size: 16px;&quot;&gt;ACK(ACK=y+1)&lt;/font&gt;&lt;/b&gt;" style="text;html=1;strokeColor=none;fillColor=none;align=center;verticalAlign=middle;whiteSpace=wrap;rounded=0;rotation=5;" vertex="1" parent="1">
          <mxGeometry x="358" y="510" width="64" height="30" as="geometry" />
        </mxCell>
        <mxCell id="5R5JDFvl6aq1sGYuGhv_-11" value="&lt;b&gt;&lt;font style=&quot;font-size: 13px;&quot;&gt;TCP 四次挥手图解&lt;/font&gt;&lt;/b&gt;" style="text;html=1;strokeColor=#666666;fillColor=#f5f5f5;align=center;verticalAlign=middle;whiteSpace=wrap;rounded=0;fontColor=#333333;" vertex="1" parent="1">
          <mxGeometry x="346" y="680" width="110" height="60" as="geometry" />
        </mxCell>
        <mxCell id="5R5JDFvl6aq1sGYuGhv_-12" value="请求关闭连接" style="text;html=1;align=center;verticalAlign=middle;resizable=0;points=[];autosize=1;strokeColor=#6c8ebf;fillColor=#dae8fc;" vertex="1" parent="1">
          <mxGeometry x="351" y="200" width="100" height="30" as="geometry" />
        </mxCell>
        <mxCell id="5R5JDFvl6aq1sGYuGhv_-13" value="确认已经收到客户端请求" style="text;html=1;align=center;verticalAlign=middle;resizable=0;points=[];autosize=1;strokeColor=#6c8ebf;fillColor=#dae8fc;" vertex="1" parent="1">
          <mxGeometry x="321" y="320" width="160" height="30" as="geometry" />
        </mxCell>
        <mxCell id="5R5JDFvl6aq1sGYuGhv_-14" value="服务端准备关闭连接" style="text;html=1;align=center;verticalAlign=middle;resizable=0;points=[];autosize=1;strokeColor=#6c8ebf;fillColor=#dae8fc;rounded=0;" vertex="1" parent="1">
          <mxGeometry x="335" y="440" width="130" height="30" as="geometry" />
        </mxCell>
        <mxCell id="5R5JDFvl6aq1sGYuGhv_-20" value="" style="endArrow=classic;html=1;rounded=0;" edge="1" parent="1">
          <mxGeometry width="50" height="50" relative="1" as="geometry">
            <mxPoint x="580.5" y="400" as="sourcePoint" />
            <mxPoint x="221.5" y="440" as="targetPoint" />
          </mxGeometry>
        </mxCell>
        <mxCell id="5R5JDFvl6aq1sGYuGhv_-23" value="&lt;b&gt;&lt;font style=&quot;font-size: 16px;&quot;&gt;FIN (SEQ=y)&lt;/font&gt;&lt;/b&gt;" style="text;html=1;strokeColor=none;fillColor=none;align=center;verticalAlign=middle;whiteSpace=wrap;rounded=0;rotation=-5;" vertex="1" parent="1">
          <mxGeometry x="350" y="390" width="100" height="30" as="geometry" />
        </mxCell>
        <mxCell id="5R5JDFvl6aq1sGYuGhv_-25" value="确认收到关闭请求" style="text;html=1;align=center;verticalAlign=middle;resizable=0;points=[];autosize=1;strokeColor=#6c8ebf;fillColor=#dae8fc;rounded=0;" vertex="1" parent="1">
          <mxGeometry x="340" y="560" width="120" height="30" as="geometry" />
        </mxCell>
        <mxCell id="5R5JDFvl6aq1sGYuGhv_-26" value="&lt;strong style=&quot;box-sizing: border-box; padding: 0px 1px; color: rgb(10, 133, 217); font-family: &amp;quot;JetBrains Mono&amp;quot;, Menlo, Consolas, HYZhengYuan; font-size: 16px; orphans: 4; text-align: left; word-spacing: 0.8px; background-color: rgb(255, 255, 255);&quot;&gt;FIN-WAIT-1&lt;/strong&gt;" style="text;html=1;align=center;verticalAlign=middle;resizable=0;points=[];autosize=1;strokeColor=none;fillColor=none;" vertex="1" parent="1">
          <mxGeometry x="105" y="150" width="110" height="30" as="geometry" />
        </mxCell>
        <mxCell id="5R5JDFvl6aq1sGYuGhv_-27" value="&lt;strong style=&quot;box-sizing: border-box; padding: 0px 1px; color: rgb(10, 133, 217); font-family: &amp;quot;JetBrains Mono&amp;quot;, Menlo, Consolas, HYZhengYuan; font-size: 16px; orphans: 4; text-align: left; word-spacing: 0.8px; background-color: rgb(255, 255, 255);&quot;&gt;&amp;nbsp;CLOSE-WAIT&lt;/strong&gt;" style="text;html=1;align=center;verticalAlign=middle;resizable=0;points=[];autosize=1;strokeColor=none;fillColor=none;" vertex="1" parent="1">
          <mxGeometry x="580" y="270" width="120" height="30" as="geometry" />
        </mxCell>
        <mxCell id="5R5JDFvl6aq1sGYuGhv_-28" value="&lt;strong style=&quot;box-sizing: border-box; padding: 0px 1px; color: rgb(10, 133, 217); font-family: &amp;quot;JetBrains Mono&amp;quot;, Menlo, Consolas, HYZhengYuan; font-size: 16px; orphans: 4; text-align: left; word-spacing: 0.8px; background-color: rgb(255, 255, 255);&quot;&gt;FIN-WAIT-2&lt;/strong&gt;" style="text;html=1;align=center;verticalAlign=middle;resizable=0;points=[];autosize=1;strokeColor=none;fillColor=none;" vertex="1" parent="1">
          <mxGeometry x="100" y="308" width="110" height="30" as="geometry" />
        </mxCell>
        <mxCell id="5R5JDFvl6aq1sGYuGhv_-29" value="&lt;strong style=&quot;box-sizing: border-box; padding: 0px 1px; color: rgb(10, 133, 217); font-family: &amp;quot;JetBrains Mono&amp;quot;, Menlo, Consolas, HYZhengYuan; font-size: 16px; orphans: 4; text-align: left; word-spacing: 0.8px; background-color: rgb(255, 255, 255);&quot;&gt;LAST-ACK&lt;/strong&gt;" style="text;html=1;align=center;verticalAlign=middle;resizable=0;points=[];autosize=1;strokeColor=none;fillColor=none;" vertex="1" parent="1">
          <mxGeometry x="590" y="388" width="100" height="30" as="geometry" />
        </mxCell>
        <mxCell id="5R5JDFvl6aq1sGYuGhv_-30" value="&lt;strong style=&quot;box-sizing: border-box; padding: 0px 1px; color: rgb(10, 133, 217); font-family: &amp;quot;JetBrains Mono&amp;quot;, Menlo, Consolas, HYZhengYuan; font-size: 16px; orphans: 4; text-align: left; word-spacing: 0.8px; background-color: rgb(255, 255, 255);&quot;&gt;TIME-WAIT&lt;/strong&gt;" style="text;html=1;align=center;verticalAlign=middle;resizable=0;points=[];autosize=1;strokeColor=none;fillColor=none;" vertex="1" parent="1">
          <mxGeometry x="590" y="530" width="100" height="30" as="geometry" />
        </mxCell>
        <mxCell id="5R5JDFvl6aq1sGYuGhv_-31" value="&lt;strong style=&quot;box-sizing: border-box; padding: 0px 1px; color: rgb(10, 133, 217); font-family: &amp;quot;JetBrains Mono&amp;quot;, Menlo, Consolas, HYZhengYuan; font-size: 16px; orphans: 4; text-align: left; word-spacing: 0.8px; background-color: rgb(255, 255, 255);&quot;&gt;CLOSE&lt;/strong&gt;" style="text;html=1;align=center;verticalAlign=middle;resizable=0;points=[];autosize=1;strokeColor=none;fillColor=none;" vertex="1" parent="1">
          <mxGeometry x="605" y="560" width="70" height="30" as="geometry" />
        </mxCell>
        <mxCell id="5R5JDFvl6aq1sGYuGhv_-32" value="&lt;strong style=&quot;box-sizing: border-box; padding: 0px 1px; color: rgb(10, 133, 217); font-family: &amp;quot;JetBrains Mono&amp;quot;, Menlo, Consolas, HYZhengYuan; font-size: 16px; orphans: 4; text-align: left; word-spacing: 0.8px; background-color: rgb(255, 255, 255);&quot;&gt;CLOSE&lt;/strong&gt;" style="text;html=1;align=center;verticalAlign=middle;resizable=0;points=[];autosize=1;strokeColor=none;fillColor=none;" vertex="1" parent="1">
          <mxGeometry x="125" y="610" width="70" height="30" as="geometry" />
        </mxCell>
      </root>
    </mxGraphModel>
  </diagram>
</mxfile>
